<svg xmlns="http://www.w3.org/2000/svg" viewBox="0 0 64 64">
  <circle cx="32" cy="32" r="30" fill="#1b2c42"/>
  <path d="M20 30c1-6 4-11 12-11s11 5 12 11c3 .4 5 1.4 5 2.6 0 2-7.6 3.6-17 3.6s-17-1.6-17-3.6c0-1.2 2-2.2 5-2.6z" fill="#d1b892"/>
  <path d="M26 29.5c0-4 2.5-7 6-7s6 3 6 7c-2 .8-10 .8-12 0z" fill="#bd9a6c"/>
  <path d="M10 44c4-3 8-3 11 0s7 3 11 0 8-3 11 0 7 3 11 0" fill="none" stroke="#83bfd0" stroke-width="2.6" stroke-linecap="round"/>
  <path d="M14 50c3.5-2.5 7-2.5 10 0s7 2.5 10 0 6.5-2.5 10 0" fill="none" stroke="#569fb6" stroke-width="2.2" stroke-linecap="round"/>
</svg>
