<svg xmlns="http://www.w3.org/2000/svg" viewBox="0 0 64 64">
  <circle cx="32" cy="32" r="30" fill="#faf5e8"/>
  <circle cx="32" cy="32" r="28" fill="none" stroke="#8a6a42" stroke-width="3" stroke-dasharray="5 3"/>
  <path d="M17 33.5c.6-1 4.5-2.2 7.5-2.6 1-5.5 3.5-9.9 7.5-9.9s6.5 4.4 7.5 9.9c3 .4 6.9 1.6 7.5 2.6.5 1-8 3-15 3s-15.5-2-15-3z" fill="#d1b892" stroke="#a8875a" stroke-width="1"/>
  <path d="M26.5 31c.2-4.2 2.4-7.5 5.5-7.5s5.3 3.3 5.5 7.5c-1.8.7-9.2.7-11 0z" fill="#a8875a"/>
  <path d="M27.5 28.5h9" stroke="#1b2c42" stroke-width="1.6"/>
  <path d="M12 44c3.6-2.8 7.2-2.8 10 0s6.4 2.8 10 0 7.2-2.8 10 0 6.4 2.8 10 0" fill="none" stroke="#569fb6" stroke-width="2.6" stroke-linecap="round"/>
  <path d="M16 50c3.2-2.3 6.4-2.3 9.5 0s6.3 2.3 9.5 0 6.3-2.3 9.5 0" fill="none" stroke="#3c5f88" stroke-width="2.2" stroke-linecap="round"/>
</svg>
